<svg xmlns="http://www.w3.org/2000/svg" width="156" height="81" viewBox="0 0 156 81" version="1.1">
	<path d="M 35.451 3.268 C 35.183 3.965, 35.085 15.778, 35.232 29.518 L 35.500 54.500 42.250 54.796 L 49 55.091 49 28.546 L 49 2 42.469 2 C 38.116 2, 35.775 2.423, 35.451 3.268 M 84.889 2.250 C 84.460 3.216, 84.324 12.924, 84.714 14.711 C 85.158 16.742, 85.863 16.946, 93.349 17.211 C 99.799 17.440, 101.500 17.813, 101.500 19 C 101.500 20.278, 97.944 20.574, 77.500 21 L 53.500 21.500 53.500 28.500 L 53.500 35.500 59.713 35.797 L 65.926 36.094 66.213 45.297 L 66.500 54.500 73.750 54.794 L 81 55.088 81 45.544 L 81 36 85.888 36 L 90.777 36 94.681 45.250 L 98.585 54.500 106.292 54.792 C 112.569 55.030, 114 54.809, 114 53.601 C 114 52.785, 113.600 51.871, 113.111 51.568 C 112.622 51.266, 111.935 49.878, 111.585 48.483 C 111.235 47.088, 109.794 43.423, 108.383 40.339 C 105.694 34.459, 105.673 34.557, 110.153 31.983 C 112.581 30.588, 116 22.904, 116 18.842 C 116 13.314, 112.093 6.975, 107.040 4.303 C 103.444 2.401, 101.146 2, 93.843 2 C 88.979 2, 84.950 2.112, 84.889 2.250 M 69 5 C 66.782 7.218, 66.450 10.103, 68.065 13.122 C 70.428 17.537, 77.709 17.129, 79.835 12.462 C 82.868 5.806, 74.178 -0.178, 69 5" stroke="none" fill="#6738e6" fill-rule="evenodd"/>
</svg>